<?xml version="1.0" encoding="UTF-8"?>
<svg width="278px" height="32px" viewBox="0 0 278 32" version="1.1" xmlns="http://www.w3.org/2000/svg" xmlns:xlink="http://www.w3.org/1999/xlink">
    <!-- Generator: Sketch 48.1 (47250) - http://www.bohemiancoding.com/sketch -->
    <title>msh-logo-white</title>
    <desc>Created with Sketch.</desc>
    <defs></defs>
    <g id="Page-1" stroke="none" stroke-width="1" fill="none" fill-rule="evenodd" opacity="0.98999995">
        <g id="msh-logo-white" fill="#FFFFFF">
            <g id="Group-9-Copy">
                <g id="Group-8">
                    <path d="M19.2847866,29.1293758 L22.2241256,29.1293758 L22.2241256,6.72611465 L12.301252,6.72611465 C11.8655004,6.72611465 11.5089222,7.09197452 11.5089222,7.54343949 L11.5089222,29.1293758 L14.4480628,29.1293758 L16.6168994,31.8689427 C16.7540143,32.0421911 16.9782398,32.0430064 17.1161485,31.8689427 L19.2847866,29.1293758" id="Fill-1"></path>
                    <path d="M7.77606281,29.1301911 L10.7152034,29.1301911 L10.7152034,13.4522293 L0.792329764,13.4522293 C0.356578158,13.4522293 0,13.8172739 0,14.2675159 L0,28.3147006 C0,28.765758 0.354792291,29.1301911 0.792329764,29.1301911 L2.93933904,29.1301911 L5.10797716,31.8689427 C5.24509208,32.0421911 5.46931763,32.0430064 5.60722627,31.8689427 L7.77606281,29.1301911" id="Fill-3"></path>
                    <path d="M30.7939072,29.1289682 L32.9407181,29.1289682 C33.3764697,29.1289682 33.7330478,28.7631083 33.7330478,28.3116433 L33.7330478,0.817121019 C33.7330478,0.363006369 33.3782555,0 32.9407181,0 L23.8101742,0 C23.3744226,0 23.0178444,0.365859873 23.0178444,0.817121019 L23.0178444,29.1289682 L25.9571834,29.1289682 L28.1258216,31.8689427 C28.2645239,32.0442293 28.487162,32.0432102 28.6250707,31.8689427 L30.7939072,29.1289682" id="Fill-4"></path>
                </g>
                <path d="M116.792146,15.1011465 C116.350044,14.4972229 115.769439,14.0043822 115.05033,13.6230318 C114.33003,13.2414777 113.456344,13.0511083 112.428875,13.0511083 C112.40546,13.0511083 112.382443,13.0519236 112.359425,13.0523312 C112.324898,13.0517197 112.29057,13.0511083 112.255646,13.0511083 C111.720878,13.0511083 111.217065,13.1250955 110.744207,13.2736815 C110.271547,13.4218599 109.835002,13.6124331 109.434174,13.8454013 C109.032552,14.0789809 108.683118,14.3594395 108.385672,14.688 C108.143389,14.9550064 107.939205,15.2252739 107.77173,15.4985987 L107.77173,14.3347771 C107.77173,13.8716943 107.407612,13.4956433 106.957772,13.4956433 L103.509659,13.4956433 C103.060017,13.4956433 102.6957,13.8716943 102.6957,14.3347771 L102.6957,28.4871338 C102.6957,28.9502166 103.060017,29.3260637 103.509659,29.3260637 L107.142708,29.3260637 C107.59235,29.3260637 107.956865,28.9502166 107.956865,28.4871338 L107.956865,20.7435414 C107.956865,20.2985987 108.013418,19.8693503 108.126919,19.456 C108.239429,19.0426497 108.409086,18.6769936 108.635693,18.3592357 C108.861308,18.0412739 109.144268,17.7926115 109.483782,17.6124331 C109.800674,17.4440764 110.167967,17.355414 110.584074,17.3444076 C110.997403,17.355414 111.344655,17.4440764 111.623449,17.6124331 C111.920895,17.7926115 112.152661,18.036586 112.317358,18.3433376 C112.481657,18.6507006 112.599723,19.0059618 112.67215,19.4085096 C112.743585,19.8112611 112.780096,20.2348025 112.780096,20.6797452 L112.780096,28.4871338 C112.780096,28.9502166 113.144611,29.3260637 113.594253,29.3260637 L117.227302,29.3260637 C117.676944,29.3260637 118.041261,28.9502166 118.041261,28.4871338 L118.041261,19.5354904 C118.041261,18.7513885 117.943633,17.9674904 117.74818,17.1833885 C117.552925,16.3992866 117.234247,15.7050701 116.792146,15.1011465" id="Fill-6"></path>
                <path d="M97.7468637,5.50318471 C96.185222,5.50318471 94.9192405,6.8084586 94.9192405,8.41844586 C94.9192405,10.0286369 96.185222,11.333707 97.7468637,11.333707 C99.3083069,11.333707 100.574288,10.0286369 100.574288,8.41844586 C100.574288,6.8084586 99.3083069,5.50318471 97.7468637,5.50318471" id="Fill-7"></path>
                <path d="M134.320829,29.8977834 L134.240267,29.8977834 C132.692515,29.8928917 131.195959,29.6122293 129.749208,29.0557962 C128.598117,28.6130955 127.600809,28.0222166 126.757086,27.2831592 C126.392174,26.9635669 126.357052,26.3971465 126.692398,26.0451465 L128.973348,23.6520764 C129.132091,23.4855541 129.34203,23.4015796 129.552167,23.4015796 C129.749803,23.4015796 129.947637,23.4755669 130.103802,23.6247643 C130.5463,24.0476943 131.070749,24.4170191 131.676555,24.732535 C132.550241,25.1886879 133.418768,25.4163567 134.282334,25.4163567 C134.672844,25.4163567 135.05363,25.373758 135.4239,25.289172 C135.793575,25.204586 136.117412,25.0665987 136.395015,24.8758217 C136.67242,24.6850446 136.893074,24.430879 137.05777,24.113121 C137.222467,23.7951592 137.305014,23.4138089 137.305014,22.9686624 C137.305014,22.5449172 137.201632,22.1847643 136.996455,21.888 C136.790485,21.5912357 136.497405,21.3207643 136.117412,21.0771975 C135.737022,20.8338344 135.263966,20.6112611 134.698838,20.4094777 C134.133115,20.2085096 133.490798,19.9912357 132.771689,19.7580637 C132.072224,19.5248917 131.388634,19.2495287 130.720918,18.9315669 C130.052408,18.6138089 129.456325,18.2059618 128.931677,17.7076178 C128.407823,17.2100892 127.986358,16.6061656 127.667482,15.8958471 C127.348605,15.1859363 127.189663,14.3223439 127.189663,13.3052739 C127.189663,12.0550318 127.436113,10.9845605 127.929806,10.094879 C128.4233,9.20458599 129.070975,8.47347771 129.872631,7.9011465 C130.674287,7.32901911 131.578928,6.91077707 132.586355,6.64580892 C133.593386,6.38084076 134.611132,6.24856051 135.639196,6.24856051 C136.873032,6.24856051 138.132069,6.48193631 139.417298,6.94766879 C140.398929,7.30415287 141.287498,7.79006369 142.083597,8.40642038 C142.477084,8.71092994 142.534827,9.29589809 142.196107,9.664 L139.843723,12.2221656 C139.734587,12.3411975 139.585764,12.4025478 139.437736,12.4025478 C139.303399,12.4025478 139.169856,12.352 139.067268,12.2474395 C138.675766,11.847949 138.206281,11.5171465 137.659409,11.254828 C136.929386,10.9052739 136.225358,10.7301911 135.546728,10.7301911 C135.197095,10.7301911 134.842303,10.7619873 134.482748,10.8257834 C134.123193,10.8889682 133.799356,11.011465 133.511832,11.1910318 C133.223712,11.371414 132.981826,11.6043822 132.786769,11.8905478 C132.591118,12.1767134 132.493689,12.5421656 132.493689,12.9871083 C132.493689,13.3690701 132.570878,13.6864204 132.725455,13.9407898 C132.879238,14.1953631 133.105448,14.4177325 133.403687,14.6081019 C133.701332,14.7992866 134.056124,14.9739618 134.468064,15.132535 C134.878417,15.2921274 135.341353,15.4562038 135.855286,15.6253758 C136.595231,15.879949 137.366328,16.1610191 138.168381,16.4681783 C138.969839,16.7753376 139.699663,17.1831847 140.358053,17.6919236 C141.01545,18.2004586 141.560338,18.8312866 141.992121,19.5831847 C142.423904,20.3356943 142.639796,21.2732739 142.639796,22.3963312 C142.639796,23.689172 142.408427,24.8071338 141.945887,25.7500127 C141.483348,26.6930955 140.861271,27.4721019 140.080053,28.0864204 C139.298438,28.7011465 138.404314,29.1568917 137.397283,29.4532484 C136.402158,29.7461401 135.376277,29.8943185 134.320829,29.8977834" id="Fill-9"></path>
                <path d="M92.036454,13.609172 L89.0197273,13.609172 C88.5722684,13.609172 88.209142,13.9829809 88.209142,14.4446369 L88.209142,15.6667516 L88.1480257,15.6667516 C87.6565153,14.8645096 86.9552648,14.2473376 86.0440757,13.8146242 C85.1336802,13.3823185 84.1659386,13.1658599 83.1414461,13.1658599 C81.9951178,13.1658599 80.9716174,13.3982166 80.0703498,13.8623185 C79.1694789,14.3264204 78.4069136,14.9435924 77.7820585,15.714242 C77.1581956,16.4844841 76.6819643,17.3764076 76.35396,18.3894013 C76.0269479,19.4025987 75.863045,20.4575796 75.863045,21.5553631 C75.863045,22.6523312 76.0313133,23.7026242 76.3694375,24.7054268 C76.7071649,25.7072102 77.1883569,26.5889427 77.813212,27.3487898 C78.4376702,28.1086369 79.1948779,28.7103185 80.0858273,29.1534268 C80.9761813,29.5963312 81.9746795,29.8180892 83.0801313,29.8180892 C84.2064183,29.8180892 85.1584839,29.5963312 85.9365268,29.1534268 C86.7149665,28.7103185 87.3185896,28.2242038 87.7485867,27.6969172 L87.8100999,27.6969172 L87.8100999,28.4759236 C87.8100999,28.9375796 88.1730278,29.3115924 88.6208837,29.3115924 L92.036454,29.3115924 C92.4841113,29.3115924 92.8472377,28.9375796 92.8472377,28.4759236 L92.8472377,14.4446369 C92.8472377,13.9829809 92.4841113,13.609172 92.036454,13.609172 M87.7640642,23.0118726 C87.5902398,23.4967643 87.3445839,23.9296815 87.0268979,24.3096051 C86.7098073,24.6895287 86.3258458,24.9952611 85.8750136,25.2278217 C85.424975,25.4595669 84.912828,25.5757452 84.3393662,25.5757452 C83.7456645,25.5757452 83.223596,25.4595669 82.7731606,25.2278217 C82.3229236,24.9952611 81.9439229,24.6944204 81.6369522,24.3255032 C81.3295846,23.9557707 81.0990093,23.5285605 80.94602,23.0432611 C80.7918401,22.5575541 80.7152463,22.0616561 80.7152463,21.5553631 C80.7152463,21.0488662 80.7918401,20.5472611 80.94602,20.0515669 C81.0990093,19.555465 81.3295846,19.1176561 81.6369522,18.7375287 C81.9439229,18.3580127 82.3229236,18.0516688 82.7731606,17.8195159 C83.223596,17.5871592 83.7456645,17.4713885 84.3393662,17.4713885 C84.912828,17.4713885 85.424975,17.5871592 85.8750136,17.8195159 C86.3258458,18.0516688 86.7098073,18.3580127 87.0268979,18.7375287 C87.3445839,19.1176561 87.5902398,19.549758 87.7640642,20.0358726 C87.9380871,20.5207643 88.0249993,21.0168662 88.0249993,21.5235669 C88.0249993,22.0302675 87.9380871,22.525758 87.7640642,23.0118726" id="Fill-12"></path>
                <path d="M73.0584397,6.82028025 L67.3432677,6.85126115 C66.9837131,6.85309554 66.652137,7.07709554 66.5304996,7.42603822 L66.5146253,7.4757707 L61.418157,21.1980637 C61.4062512,21.2302675 61.3762884,21.251465 61.3429522,21.251465 C61.309616,21.251465 61.2796531,21.2302675 61.2677473,21.1980637 L56.1712791,7.4757707 L56.1556031,7.42603822 C56.0339657,7.07709554 55.7021913,6.85309554 55.3426367,6.85126115 L49.6274647,6.82028025 C49.1780214,6.82028025 48.8137045,7.19592357 48.8137045,7.65941401 L48.8137045,28.4869299 C48.8137045,28.9504204 49.1782198,29.3260637 49.6276631,29.3260637 L52.9585039,29.3260637 C53.4105268,29.3260637 53.7760343,28.9463439 53.7722641,28.4804076 L53.6559843,14.0162038 C53.6557859,13.9852229 53.6801927,13.959949 53.7101556,13.959949 C53.7327766,13.959949 53.7530164,13.9744204 53.7609536,13.9964331 L59.1036731,28.8536051 C59.2024911,29.1283567 59.5362498,29.3260637 59.8126624,29.3260637 L62.8734404,29.3260637 C63.1496545,29.3260637 63.4834133,29.1283567 63.5822313,28.8536051 L68.9251492,13.9964331 C68.9328879,13.9744204 68.9531278,13.959949 68.9757488,13.959949 C69.0059101,13.959949 69.0301185,13.9852229 69.0299201,14.0162038 L68.9136403,28.4804076 C68.9098701,28.9463439 69.2753776,29.3260637 69.7274004,29.3260637 L73.0582413,29.3260637 C73.5078829,29.3260637 73.8721999,28.9504204 73.8721999,28.4869299 L73.8721999,7.65941401 C73.8721999,7.19592357 73.5078829,6.82028025 73.0584397,6.82028025" id="Fill-13"></path>
                <path d="M99.3999814,13.4956433 L96.1683555,13.4956433 C95.7187138,13.4956433 95.3543969,13.8716943 95.3543969,14.3347771 L95.3543969,28.4871338 C95.3543969,28.9502166 95.7187138,29.3260637 96.1683555,29.3260637 L99.3999814,29.3260637 C99.8496231,29.3260637 100.214138,28.9502166 100.214138,28.4871338 L100.214138,14.3347771 C100.214138,13.8716943 99.8496231,13.4956433 99.3999814,13.4956433" id="Fill-14"></path>
                <path d="M212.006253,13.4958471 L209.212363,13.4958471 L209.212363,10.1707006 C209.212363,9.70741401 208.847252,9.3317707 208.396817,9.3317707 L205.061213,9.3317707 C204.610778,9.3317707 204.245667,9.70741401 204.245667,10.1707006 L204.245667,13.4958471 L202.624497,13.4958471 C202.174061,13.4958471 201.810935,13.8716943 201.810935,14.3349809 L201.810935,16.534828 C201.810935,16.9981146 202.174061,17.3739618 202.624497,17.3739618 L204.277416,17.3739618 L204.277416,24.0666497 C204.277416,24.916586 204.370678,25.686828 204.555218,26.377172 C204.739757,27.0675159 205.043355,27.6626752 205.464026,28.1616306 C205.886681,28.6614013 206.446253,29.0439745 207.146709,29.3091465 C207.845182,29.5743185 208.708351,29.707414 209.736217,29.707414 C210.269993,29.707414 210.805753,29.6599236 211.339529,29.564535 C211.682812,29.5033885 211.98641,29.4357197 212.25429,29.3613248 C212.496374,29.2940637 212.663055,29.0686369 212.659086,28.8105987 L212.615432,26.136051 C212.609479,25.7930191 212.311834,25.5390573 211.982441,25.5953121 C211.95863,25.5991847 211.934818,25.6032611 211.911006,25.6069299 C211.633205,25.6495287 211.371278,25.6703185 211.123241,25.6703185 C210.404925,25.6703185 209.904882,25.4846369 209.629065,25.1124586 C209.351263,24.739465 209.212363,24.1811975 209.212363,23.4370446 L209.212363,17.3739618 L212.006253,17.3739618 C212.454704,17.3739618 212.819814,16.9981146 212.819814,16.534828 L212.819814,14.3349809 C212.819814,13.8716943 212.454704,13.4958471 212.006253,13.4958471" id="Fill-15"></path>
                <path d="M239.933248,6.82028025 L236.288094,6.82028025 C235.839643,6.82028025 235.474532,7.19592357 235.474532,7.65941401 L235.474532,14.9317707 L226.963883,14.9317707 L226.963883,7.65941401 C226.963883,7.19592357 226.598772,6.82028025 226.150321,6.82028025 L222.503183,6.82028025 C222.054732,6.82028025 221.689622,7.19592357 221.689622,7.65941401 L221.689622,28.4871338 C221.689622,28.9502166 222.054732,29.3260637 222.503183,29.3260637 L226.150321,29.3260637 C226.598772,29.3260637 226.963883,28.9502166 226.963883,28.4871338 L226.963883,19.5089936 L235.474532,19.5089936 L235.474532,28.4871338 C235.474532,28.9502166 235.839643,29.3260637 236.288094,29.3260637 L239.933248,29.3260637 C240.383683,29.3260637 240.748794,28.9502166 240.748794,28.4871338 L240.748794,7.65941401 C240.748794,7.19592357 240.383683,6.82028025 239.933248,6.82028025" id="Fill-16"></path>
                <path d="M257.555789,13.4956433 L254.126924,13.4956433 C253.676488,13.4956433 253.313362,13.8716943 253.313362,14.3347771 L253.313362,22.0469809 C253.313362,22.9578599 253.081199,23.7525605 252.618858,24.430879 C252.156517,25.1091975 251.481856,25.4481529 250.598844,25.4481529 C250.126581,25.4481529 249.745596,25.3580637 249.457873,25.1776815 C249.17015,24.997707 248.937987,24.7486369 248.763369,24.430879 C248.588751,24.1129172 248.471677,23.7525605 248.410164,23.3502166 C248.348651,22.947465 248.316902,22.5237197 248.316902,22.0785732 L248.316902,14.3347771 C248.316902,13.8716943 247.953776,13.4956433 247.50334,13.4956433 L244.042727,13.4956433 C243.592291,13.4956433 243.229165,13.8716943 243.229165,14.3347771 L243.229165,23.2864204 C243.229165,24.0919236 243.326395,24.881121 243.520857,25.6544204 C243.717302,26.4283312 244.034789,27.1170446 244.477288,27.7207643 C244.919786,28.3246879 245.495232,28.8173248 246.203626,29.198879 C246.914004,29.5804331 247.783126,29.7710064 248.810992,29.7710064 C249.344768,29.7710064 249.852748,29.6964076 250.336916,29.5486369 C250.819101,29.4002548 251.261599,29.2096815 251.662427,28.9763057 C252.063255,28.7435414 252.412491,28.4679745 252.71212,28.1500127 C253.009764,27.8318471 253.251849,27.4932994 253.436388,27.132535 L253.497901,27.132535 L253.497901,28.4871338 C253.497901,28.9502166 253.863012,29.3260637 254.311463,29.3260637 L257.555789,29.3260637 C258.006224,29.3260637 258.371335,28.9502166 258.371335,28.4871338 L258.371335,14.3347771 C258.371335,13.8716943 258.006224,13.4956433 257.555789,13.4956433" id="Fill-17"></path>
                <path d="M153.598473,13.4958471 L150.804384,13.4958471 L150.804384,10.1707006 C150.804384,9.70741401 150.440067,9.3317707 149.990425,9.3317707 L146.653235,9.3317707 C146.203792,9.3317707 145.839276,9.70741401 145.839276,10.1707006 L145.839276,13.4958471 L144.217312,13.4958471 C143.767472,13.4958471 143.403353,13.8716943 143.403353,14.3349809 L143.403353,16.534828 C143.403353,16.9981146 143.767472,17.3739618 144.217312,17.3739618 L145.870231,17.3739618 L145.870231,24.0666497 C145.870231,24.916586 145.9627,25.686828 146.147834,26.377172 C146.333168,27.0675159 146.63617,27.6626752 147.057436,28.1616306 C147.478702,28.6614013 148.039266,29.0439745 148.738532,29.3091465 C149.437203,29.5743185 150.300769,29.707414 151.328635,29.707414 C151.863205,29.707414 152.397576,29.6599236 152.932344,29.564535 C153.274635,29.5033885 153.579622,29.4357197 153.846311,29.3613248 C154.088197,29.2940637 154.25587,29.0686369 154.251703,28.8105987 L154.208445,26.136051 C154.202691,25.7930191 153.903856,25.5390573 153.575256,25.5953121 C153.551246,25.5991847 153.527236,25.6032611 153.502829,25.6069299 C153.225425,25.6495287 152.963299,25.6703185 152.716453,25.6703185 C151.996946,25.6703185 151.498491,25.4846369 151.220888,25.1124586 C150.943483,24.739465 150.804384,24.1811975 150.804384,23.4370446 L150.804384,17.3739618 L153.598473,17.3739618 C154.048114,17.3739618 154.412431,16.9981146 154.412431,16.534828 L154.412431,14.3349809 C154.412431,13.8716943 154.048114,13.4958471 153.598473,13.4958471" id="Fill-18"></path>
                <path d="M277.446381,18.1841529 C277.107066,17.1780892 276.624882,16.2932994 275.997844,15.5303949 C275.370807,14.7672866 274.608837,14.1631592 273.715903,13.7182166 C272.820985,13.2734777 271.818915,13.0509045 270.707709,13.0509045 C269.57666,13.0509045 268.622213,13.2734777 267.8404,13.7182166 C267.058587,14.1631592 266.453376,14.6513121 266.020799,15.1806369 L265.959286,15.1806369 L265.959286,7.5322293 C265.959286,7.06853503 265.594176,6.69329936 265.145724,6.69329936 L261.714875,6.69329936 C261.266424,6.69329936 260.901313,7.06853503 260.901313,7.5322293 L260.901313,28.4869299 C260.901313,28.9504204 261.266424,29.3260637 261.714875,29.3260637 L264.744897,29.3260637 C265.193348,29.3260637 265.558458,28.9504204 265.558458,28.4869299 L265.558458,27.2601274 L265.619971,27.2601274 C266.114061,28.0654268 266.816502,28.6852484 267.733248,29.1193885 C268.646024,29.5537325 269.61833,29.7710064 270.646196,29.7710064 C271.797088,29.7710064 272.824954,29.5374268 273.729793,29.0718981 C274.634632,28.605758 275.400571,27.9861401 276.027609,27.2122293 C276.654647,26.4389299 277.132862,25.5433376 277.462256,24.5262675 C277.789665,23.5089936 277.954361,22.4495287 277.954361,21.3472611 C277.954361,20.2460127 277.785696,19.1912357 277.446381,18.1841529 M272.850749,22.8573758 C272.697959,23.3555159 272.465796,23.7951592 272.15823,24.1765096 C271.84868,24.5578599 271.467695,24.8652229 271.017259,25.0983949 C270.564839,25.3315669 270.039001,25.447949 269.443712,25.447949 C268.868266,25.447949 268.354333,25.3315669 267.901913,25.0983949 C267.449493,24.8652229 267.06454,24.5578599 266.745068,24.1765096 C266.425596,23.7951592 266.179543,23.3610191 266.004925,22.8730701 C265.830307,22.3861401 265.742998,21.888 265.742998,21.3792611 C265.742998,20.8705223 265.830307,20.3729936 266.004925,19.8848408 C266.179543,19.3979108 266.425596,18.9633631 266.745068,18.5818089 C267.06454,18.2004586 267.449493,17.8932994 267.901913,17.6597197 C268.354333,17.4271592 268.868266,17.3103694 269.443712,17.3103694 C270.039001,17.3103694 270.564839,17.4271592 271.017259,17.6597197 C271.467695,17.8932994 271.84868,18.1953631 272.15823,18.5659108 C272.465796,18.9370701 272.697959,19.3661146 272.850749,19.8532484 C273.005525,20.3409936 273.082912,20.8389299 273.082912,21.3472611 C273.082912,21.8557962 273.005525,22.3594395 272.850749,22.8573758" id="Fill-19"></path>
                <path d="M166.485886,13.0827006 C166.290036,13.0619108 166.08982,13.0509045 165.884445,13.0509045 C164.938531,13.0509045 164.105722,13.3071083 163.386414,13.8193121 C162.666709,14.3315159 162.111503,14.9929172 161.72139,15.8033121 L161.65948,15.8033121 L161.65948,14.3537325 C161.65948,13.8906497 161.295163,13.5148025 160.845522,13.5148025 L157.600998,13.5148025 C157.151356,13.5148025 156.787039,13.8906497 156.787039,14.3537325 L156.787039,28.4871338 C156.787039,28.9502166 157.151356,29.3260637 157.600998,29.3260637 L161.03026,29.3260637 C161.4801,29.3260637 161.844218,28.9502166 161.844218,28.4871338 L161.844218,21.2100892 C161.844218,20.8935541 161.906525,20.5238217 162.029552,20.1015032 C162.153173,19.6785732 162.353191,19.2876433 162.631191,18.9278981 C162.908397,18.5687643 163.27827,18.2622166 163.741206,18.0086624 C164.203944,17.7553121 164.77443,17.6283312 165.452464,17.6283312 C165.658037,17.6283312 165.868968,17.6391338 166.084859,17.6599236 C166.121767,17.6637962 166.158675,17.6676688 166.195583,17.6727643 C166.494418,17.7118981 166.7621,17.4817834 166.776784,17.1721783 L166.942274,13.6324076 C166.955569,13.3533758 166.755353,13.1122548 166.485886,13.0827006" id="Fill-20"></path>
                <path d="M198.863064,15.2760255 C198.184434,14.5347261 197.371864,13.9676943 196.426744,13.5753376 C195.480631,13.1835924 194.442248,12.9871083 193.311993,12.9871083 C192.140067,12.9871083 191.050093,13.1888917 190.042864,13.5912357 C189.035635,13.9939873 188.162147,14.5606115 187.421806,15.2919236 C186.681663,16.0230318 186.095502,16.913121 185.663917,17.9617834 C185.232531,19.0108535 185.01664,20.1822166 185.01664,21.4746497 C185.01664,22.8094777 185.237095,23.9967389 185.679593,25.0350064 C186.121099,26.0730701 186.727897,26.9472611 187.498995,27.657172 C188.269696,28.3674904 189.168979,28.9078217 190.197639,29.2781656 C191.225108,29.649121 192.314288,29.8348025 193.465974,29.8348025 C195.028211,29.8348025 196.400749,29.5431338 197.582994,28.9608153 C198.464815,28.5258599 199.218253,27.9523057 199.842512,27.239949 C200.181827,26.8543185 200.098487,26.2450955 199.671863,25.9676943 L197.504812,24.5572484 C197.186928,24.3501656 196.774591,24.3960255 196.504727,24.6660892 C196.233275,24.9373758 195.919359,25.1717707 195.563178,25.3686624 C195.007971,25.6762293 194.329739,25.8290955 193.527686,25.8290955 C193.075663,25.8290955 192.638324,25.7553121 192.217058,25.6069299 C191.795593,25.4589554 191.4156,25.2522803 191.076286,24.9873121 C190.736971,24.7223439 190.459566,24.4098854 190.243476,24.0493248 C190.027783,23.689172 189.899201,23.2866242 189.858126,22.8414777 L200.435817,22.8414777 C200.757273,22.8414777 201.021185,22.5695796 201.021185,22.2375541 L201.021185,21.6016306 C201.021185,20.2460127 200.830692,19.037758 200.451692,17.9776815 C200.070707,16.9184204 199.540899,16.0177325 198.863064,15.2760255 Z M189.858126,19.5990828 C189.878167,19.1969427 189.981549,18.8100892 190.166485,18.4389299 C190.351422,18.0683822 190.59807,17.7447134 190.906628,17.4693503 C191.215186,17.1941911 191.574344,16.9765096 191.985887,16.8179363 C192.396637,16.6585478 192.849652,16.5790573 193.342551,16.5790573 C194.34978,16.5790573 195.105202,16.8764331 195.60961,17.4693503 C196.11263,18.062879 196.364834,18.772586 196.364834,19.5990828 L189.858126,19.5990828 Z" id="Fill-21"></path>
                <path d="M181.520308,15.2760255 C180.841679,14.5347261 180.029109,13.9676943 179.083989,13.5753376 C178.137876,13.1835924 177.099493,12.9871083 175.969238,12.9871083 C174.797312,12.9871083 173.707338,13.1888917 172.700108,13.5912357 C171.692681,13.9939873 170.819193,14.5606115 170.079051,15.2919236 C169.338908,16.0230318 168.752548,16.913121 168.321162,17.9617834 C167.889776,19.0108535 167.673686,20.1822166 167.673686,21.4746497 C167.673686,22.8094777 167.89434,23.9967389 168.33664,25.0350064 C168.778344,26.0730701 169.385142,26.9472611 170.15624,27.657172 C170.926742,28.3674904 171.826224,28.9078217 172.854884,29.2781656 C173.882353,29.649121 174.971732,29.8348025 176.123219,29.8348025 C177.685258,29.8348025 179.057796,29.5431338 180.24004,28.9608153 C181.121862,28.5258599 181.875498,27.9523057 182.499956,27.239949 C182.838278,26.8543185 182.754739,26.2450955 182.328314,25.9676943 L180.161859,24.5572484 C179.843974,24.3501656 179.431836,24.3960255 179.161971,24.6660892 C178.89052,24.9373758 178.576604,25.1717707 178.220423,25.3686624 C177.665216,25.6762293 176.986785,25.8290955 176.184732,25.8290955 C175.732709,25.8290955 175.29537,25.7553121 174.874303,25.6069299 C174.45264,25.4589554 174.072845,25.2522803 173.733332,24.9873121 C173.394216,24.7223439 173.116612,24.4098854 172.900721,24.0493248 C172.685028,23.689172 172.556247,23.2866242 172.51537,22.8414777 L183.09842,22.8414777 C183.418685,22.8414777 183.67843,22.5740637 183.678628,22.2375541 L183.678628,21.6016306 C183.678628,20.2460127 183.488532,19.037758 183.108341,17.9776815 C182.727356,16.9184204 182.198343,16.0177325 181.520308,15.2760255 Z M172.51537,19.5990828 C172.535412,19.1969427 172.638794,18.8100892 172.823532,18.4389299 C173.008667,18.0683822 173.255315,17.7447134 173.563675,17.4693503 C173.872233,17.1941911 174.231589,16.9765096 174.643132,16.8179363 C175.054278,16.6585478 175.506698,16.5790573 175.999994,16.5790573 C177.007025,16.5790573 177.762248,16.8764331 178.266855,17.4693503 C178.769874,18.062879 179.022079,18.772586 179.022079,19.5990828 L172.51537,19.5990828 Z" id="Fill-22"></path>
            </g>
        </g>
    </g>
</svg>