<?xml version="1.0" encoding="UTF-8"?>
<svg width="60px" height="60px" viewBox="0 0 60 60" version="1.1" xmlns="http://www.w3.org/2000/svg" xmlns:xlink="http://www.w3.org/1999/xlink">
    <!-- Generator: Sketch 48.1 (47250) - http://www.bohemiancoding.com/sketch -->
    <title>icon-person</title>
    <desc>Created with Sketch.</desc>
    <defs></defs>
    <g id="Page-1" stroke="none" stroke-width="1" fill="none" fill-rule="evenodd">
        <g id="icon-person" fill="#D6D6D6">
            <path d="M52.34175,45.3748966 C51.826125,45.1216552 39.59775,39.1034483 30,39.1034483 C20.40225,39.1034483 8.173875,45.1216552 7.65825,45.3748966 C6.641625,45.8813793 6,46.9129655 6,48.0413793 L6,51.0206897 C6,52.6667586 7.34325,54 9,54 L51,54 C52.65675,54 54,52.6667586 54,51.0206897 L54,48.0413793 C54,46.9129655 53.358375,45.8813793 52.34175,45.3748966 Z M17.5862069,23.8758621 L17.5862069,17.9172414 C17.5862069,11.3478621 22.9693319,6 29.5862069,6 C36.2027069,6 41.5862069,11.3478621 41.5862069,17.9172414 L41.5862069,23.8758621 C41.5862069,30.4452414 36.2027069,35.7931034 29.5862069,35.7931034 C22.9693319,35.7931034 17.5862069,30.4452414 17.5862069,23.8758621 Z" id="Fill-18-Copy"></path>
        </g>
    </g>
</svg>