<?xml version="1.0" encoding="UTF-8"?>
<svg width="600px" height="173px" viewBox="0 0 600 173" version="1.1" xmlns="http://www.w3.org/2000/svg" xmlns:xlink="http://www.w3.org/1999/xlink">
    <!-- Generator: Sketch 48.1 (47250) - http://www.bohemiancoding.com/sketch -->
    <title>no-response</title>
    <desc>Created with Sketch.</desc>
    <defs></defs>
    <g id="Page-1" stroke="none" stroke-width="1" fill="none" fill-rule="evenodd">
        <g id="no-response" fill="#EA3030">
            <g id="Group-2-Copy">
                <g id="Group-5">
                    <path d="M83.8880049,118.248426 L69.0644131,79.2350714 L68.7932498,79.2350714 L69.1548009,118.248426 L56.2293519,118.248426 L56.2293519,54.1615231 L72.1375968,54.1615231 L86.8708008,93.7179875 L87.141964,93.7179875 L86.8708008,54.1615231 L99.3443109,54.1615231 L99.3443109,118.248426 L83.8880049,118.248426 Z M157.282862,86.0239383 C157.282862,91.0929843 156.710412,95.7244538 155.565494,99.9184859 C154.420577,104.112518 152.793614,107.687952 150.684556,110.644896 C148.575497,113.601839 145.999472,115.894944 142.956403,117.524281 C139.913333,119.153617 136.493697,119.968273 132.697392,119.968273 C128.901088,119.968273 125.481452,119.153617 122.438382,117.524281 C119.395313,115.894944 116.819287,113.601839 114.710229,110.644896 C112.601171,107.687952 110.974208,104.112518 109.82929,99.9184859 C108.684373,95.7244538 108.111923,91.0929843 108.111923,86.0239383 C108.111923,80.9548924 108.669309,76.3535953 109.784097,72.219909 C110.898884,68.0862227 112.510783,64.5560472 114.619841,61.6292767 C116.7289,58.7025061 119.304925,56.4395731 122.347994,54.8404098 C125.391064,53.2412465 128.840829,52.4416768 132.697392,52.4416768 C136.493697,52.4416768 139.913333,53.2412465 142.956403,54.8404098 C145.999472,56.4395731 148.575497,58.7025061 150.684556,61.6292767 C152.793614,64.5560472 154.420577,68.0862227 155.565494,72.219909 C156.710412,76.3535953 157.282862,80.9548924 157.282862,86.0239383 Z M142.45927,86.0239383 C142.45927,83.2480322 142.248367,80.6682886 141.826556,78.2846301 C141.404744,75.9009716 140.787101,73.8341594 139.973607,72.0841317 C139.160113,70.3341039 138.150793,68.9612579 136.945617,67.9655524 C135.740441,66.969847 134.32438,66.4720017 132.697392,66.4720017 C131.070405,66.4720017 129.63928,66.969847 128.403974,67.9655524 C127.168669,68.9612579 126.144284,70.3341039 125.33079,72.0841317 C124.517297,73.8341594 123.914718,75.9009716 123.523035,78.2846301 C123.131353,80.6682886 122.935515,83.2480322 122.935515,86.0239383 C122.935515,88.7998444 123.131353,91.3946743 123.523035,93.8085057 C123.914718,96.2223371 124.517297,98.3042355 125.33079,100.054263 C126.144284,101.804291 127.168669,103.192223 128.403974,104.218102 C129.63928,105.24398 131.070405,105.756911 132.697392,105.756911 C134.32438,105.756911 135.740441,105.24398 136.945617,104.218102 C138.150793,103.192223 139.160113,101.804291 139.973607,100.054263 C140.787101,98.3042355 141.404744,96.2223371 141.826556,93.8085057 C142.248367,91.3946743 142.45927,88.7998444 142.45927,86.0239383 Z M210.8828,118.248426 L202.295963,92.722287 L198.047739,92.722287 L198.047739,118.248426 L184.128025,118.248426 L184.128025,54.1615231 L204.646045,54.1615231 C210.852702,54.1615231 215.673334,55.7757486 219.108086,59.0042481 C222.542838,62.2327476 224.260188,67.0452518 224.260188,73.441905 C224.260188,75.7953907 223.989027,77.9074615 223.446698,79.7781808 C222.904369,81.6489001 222.196339,83.2480395 221.322586,84.5756467 C220.448833,85.903254 219.469642,86.9894618 218.384984,87.8343028 C217.300325,88.6791438 216.245812,89.2825926 215.221412,89.6446673 L226.158331,118.248426 L210.8828,118.248426 Z M209.978923,74.2565691 C209.978923,72.6272329 209.752956,71.2996455 209.301014,70.2737672 C208.849073,69.2478888 208.261559,68.4332329 207.538453,67.8297751 C206.815348,67.2263172 206.01693,66.8189893 205.143178,66.6077791 C204.269425,66.3965688 203.41075,66.2909653 202.567127,66.2909653 L198.047739,66.2909653 L198.047739,82.4937276 L202.295963,82.4937276 C204.344763,82.4937276 206.137435,81.8450201 207.674035,80.5475857 C209.210634,79.2501513 209.978923,77.1531668 209.978923,74.2565691 Z M233.0278,118.248426 L233.0278,54.1615231 L263.940412,54.1615231 L263.940412,66.9245928 L246.857127,66.9245928 L246.857127,79.5066261 L262.584596,79.5066261 L262.584596,91.4550318 L246.857127,91.4550318 L246.857127,105.30432 L265.025065,105.30432 L265.025065,118.248426 L233.0278,118.248426 Z M300.005126,69.5496214 C298.920468,68.2823599 297.655052,67.3017556 296.208841,66.6077791 C294.762629,65.9138025 293.256182,65.5668195 291.689453,65.5668195 C290.062465,65.5668195 288.601211,66.0797509 287.305647,67.1056293 C286.010082,68.1315076 285.36231,69.8211643 285.36231,72.1746499 C285.36231,74.1660608 286.025147,75.7199415 287.350841,76.8363385 C288.676534,77.9527355 290.634916,79.1747193 293.226045,80.5023266 C294.672256,81.226476 296.193768,82.0863906 297.790626,83.082096 C299.387485,84.0778015 300.848739,85.2997853 302.174432,86.7480841 C303.500126,88.196383 304.599833,89.9312983 305.473585,91.9528821 C306.347338,93.9744659 306.784208,96.3731749 306.784208,99.149081 C306.784208,102.588791 306.241887,105.621121 305.157228,108.246163 C304.07257,110.871204 302.611316,113.04362 300.773422,114.763475 C298.935529,116.48333 296.811438,117.780745 294.401085,118.655758 C291.990733,119.530772 289.49003,119.968273 286.898902,119.968273 C283.042338,119.968273 279.532316,119.244134 276.368728,117.795835 C273.205141,116.347536 270.659245,114.65788 268.730963,112.726815 L276.142759,101.864628 C277.528712,103.312927 279.125546,104.474566 280.93331,105.349579 C282.741074,106.224593 284.57894,106.662094 286.446963,106.662094 C288.194468,106.662094 289.670787,106.088817 290.875963,104.942247 C292.081139,103.795677 292.683718,102.196538 292.683718,100.144781 C292.683718,98.032679 291.960623,96.3581085 290.514412,95.12102 C289.068201,93.8839314 286.959174,92.5714302 284.187269,91.1834772 C282.439764,90.3386362 280.797736,89.4032905 279.261137,88.3774122 C277.724537,87.3515338 276.368734,86.1144638 275.193688,84.666165 C274.018641,83.2178661 273.099708,81.5282095 272.436861,79.5971444 C271.774014,77.6660792 271.442596,75.3729738 271.442596,72.7177592 C271.442596,69.1573579 272.03011,66.0948553 273.205157,63.5301594 C274.380204,60.9654635 275.91678,58.868479 277.814933,57.2391428 C279.713085,55.6098066 281.822111,54.402909 284.142075,53.6184138 C286.462039,52.8339185 288.797033,52.4416768 291.147126,52.4416768 C294.642137,52.4416768 297.775548,53.0149532 300.547453,54.1615231 C303.319358,55.308093 305.639287,56.8770599 307.50731,58.8684708 L300.005126,69.5496214 Z M354.689718,74.2565691 C354.689718,77.8169704 354.147397,80.8945593 353.062738,83.489428 C351.97808,86.0842968 350.53189,88.22654 348.724126,89.916222 C346.916362,91.605904 344.867593,92.8580603 342.577759,93.6727284 C340.287924,94.4873965 337.967995,94.8947244 335.617902,94.8947244 L329.381147,94.8947244 L329.381147,118.248426 L315.190269,118.248426 L315.190269,54.1615231 L335.075575,54.1615231 C337.36541,54.1615231 339.670274,54.4934199 341.990238,55.1572236 C344.310202,55.8210272 346.419229,56.9223213 348.317381,58.4611388 C350.215533,59.9999563 351.75211,62.0667685 352.927157,64.6616372 C354.102203,67.256506 354.689718,70.4547846 354.689718,74.2565691 Z M341.131555,74.5281237 C341.131555,71.6315261 340.438589,69.5496277 339.052636,68.2823662 C337.666684,67.0151047 335.979463,66.3814835 333.990922,66.3814835 L329.381147,66.3814835 L329.381147,83.1273551 L333.990922,83.1273551 C335.979463,83.1273551 337.666684,82.3881303 339.052636,80.9096586 C340.438589,79.4311869 341.131555,77.3040299 341.131555,74.5281237 Z M408.922371,86.0239383 C408.922371,91.0929843 408.349921,95.7244538 407.205003,99.9184859 C406.060086,104.112518 404.433123,107.687952 402.324065,110.644896 C400.215006,113.601839 397.638981,115.894944 394.595912,117.524281 C391.552842,119.153617 388.133206,119.968273 384.336901,119.968273 C380.540597,119.968273 377.120961,119.153617 374.077891,117.524281 C371.034822,115.894944 368.458796,113.601839 366.349738,110.644896 C364.24068,107.687952 362.613717,104.112518 361.468799,99.9184859 C360.323882,95.7244538 359.751432,91.0929843 359.751432,86.0239383 C359.751432,80.9548924 360.308818,76.3535953 361.423606,72.219909 C362.538393,68.0862227 364.150292,64.5560472 366.25935,61.6292767 C368.368409,58.7025061 370.944434,56.4395731 373.987503,54.8404098 C377.030573,53.2412465 380.480338,52.4416768 384.336901,52.4416768 C388.133206,52.4416768 391.552842,53.2412465 394.595912,54.8404098 C397.638981,56.4395731 400.215006,58.7025061 402.324065,61.6292767 C404.433123,64.5560472 406.060086,68.0862227 407.205003,72.219909 C408.349921,76.3535953 408.922371,80.9548924 408.922371,86.0239383 Z M394.098779,86.0239383 C394.098779,83.2480322 393.887876,80.6682886 393.466065,78.2846301 C393.044253,75.9009716 392.426609,73.8341594 391.613116,72.0841317 C390.799622,70.3341039 389.790302,68.9612579 388.585126,67.9655524 C387.37995,66.969847 385.963889,66.4720017 384.336901,66.4720017 C382.709914,66.4720017 381.278789,66.969847 380.043483,67.9655524 C378.808178,68.9612579 377.783793,70.3341039 376.970299,72.0841317 C376.156806,73.8341594 375.554227,75.9009716 375.162544,78.2846301 C374.770862,80.6682886 374.575024,83.2480322 374.575024,86.0239383 C374.575024,88.7998444 374.770862,91.3946743 375.162544,93.8085057 C375.554227,96.2223371 376.156806,98.3042355 376.970299,100.054263 C377.783793,101.804291 378.808178,103.192223 380.043483,104.218102 C381.278789,105.24398 382.709914,105.756911 384.336901,105.756911 C385.963889,105.756911 387.37995,105.24398 388.585126,104.218102 C389.790302,103.192223 390.799622,101.804291 391.613116,100.054263 C392.426609,98.3042355 393.044253,96.2223371 393.466065,93.8085057 C393.887876,91.3946743 394.098779,88.7998444 394.098779,86.0239383 Z M445.348636,118.248426 L430.525044,79.2350714 L430.253881,79.2350714 L430.615432,118.248426 L417.689983,118.248426 L417.689983,54.1615231 L433.598228,54.1615231 L448.331432,93.7179875 L448.602595,93.7179875 L448.331432,54.1615231 L460.804942,54.1615231 L460.804942,118.248426 L445.348636,118.248426 Z M498.677411,69.5496214 C497.592753,68.2823599 496.327337,67.3017556 494.881125,66.6077791 C493.434914,65.9138025 491.928467,65.5668195 490.361738,65.5668195 C488.73475,65.5668195 487.273496,66.0797509 485.977932,67.1056293 C484.682367,68.1315076 484.034595,69.8211643 484.034595,72.1746499 C484.034595,74.1660608 484.697432,75.7199415 486.023125,76.8363385 C487.348819,77.9527355 489.307201,79.1747193 491.898329,80.5023266 C493.344541,81.226476 494.866053,82.0863906 496.462911,83.082096 C498.059769,84.0778015 499.521023,85.2997853 500.846717,86.7480841 C502.172411,88.196383 503.272118,89.9312983 504.14587,91.9528821 C505.019623,93.9744659 505.456493,96.3731749 505.456493,99.149081 C505.456493,102.588791 504.914172,105.621121 503.829513,108.246163 C502.744855,110.871204 501.2836,113.04362 499.445707,114.763475 C497.607813,116.48333 495.483722,117.780745 493.07337,118.655758 C490.663018,119.530772 488.162315,119.968273 485.571187,119.968273 C481.714623,119.968273 478.2046,119.244134 475.041013,117.795835 C471.877426,116.347536 469.33153,114.65788 467.403248,112.726815 L474.815044,101.864628 C476.200996,103.312927 477.797831,104.474566 479.605595,105.349579 C481.413359,106.224593 483.251225,106.662094 485.119248,106.662094 C486.866753,106.662094 488.343072,106.088817 489.548248,104.942247 C490.753424,103.795677 491.356003,102.196538 491.356003,100.144781 C491.356003,98.032679 490.632908,96.3581085 489.186697,95.12102 C487.740485,93.8839314 485.631459,92.5714302 482.859554,91.1834772 C481.112049,90.3386362 479.470021,89.4032905 477.933421,88.3774122 C476.396822,87.3515338 475.041019,86.1144638 473.865972,84.666165 C472.690926,83.2178661 471.771993,81.5282095 471.109146,79.5971444 C470.446299,77.6660792 470.114881,75.3729738 470.114881,72.7177592 C470.114881,69.1573579 470.702395,66.0948553 471.877442,63.5301594 C473.052488,60.9654635 474.589065,58.868479 476.487217,57.2391428 C478.38537,55.6098066 480.494396,54.402909 482.81436,53.6184138 C485.134324,52.8339185 487.469318,52.4416768 489.819411,52.4416768 C493.314422,52.4416768 496.447833,53.0149532 499.219738,54.1615231 C501.991643,55.308093 504.311572,56.8770599 506.179595,58.8684708 L498.677411,69.5496214 Z M513.862554,118.248426 L513.862554,54.1615231 L544.775166,54.1615231 L544.775166,66.9245928 L527.69188,66.9245928 L527.69188,79.5066261 L543.41935,79.5066261 L543.41935,91.4550318 L527.69188,91.4550318 L527.69188,105.30432 L545.859819,105.30432 L545.859819,118.248426 L513.862554,118.248426 Z" id="NO-RESPONSE"></path>
                    <path d="M20.3957299,20.6261039 L20.3957299,152.388791 L579.996362,152.388791 L579.996362,20.6261039 L20.3957299,20.6261039 Z M0.409993014,0.61151861 L599.982099,0.61151861 L599.982099,172.403376 L0.409993014,172.403376 L0.409993014,0.61151861 Z" id="Rectangle-6" fill-rule="nonzero"></path>
                </g>
            </g>
        </g>
    </g>
</svg>